{
    "asset" : {
        "generator" : "Khronos glTF Blender I/O v1.6.16",
        "version" : "2.0"
    },
    "scene" : 0,
    "scenes" : [
        {
            "name" : "Scene",
            "nodes" : [
                0
            ]
        }
    ],
    "nodes" : [
        {
            "mesh" : 0,
            "name" : "Cube.002_0.001",
            "rotation" : [
                0,
                0.7284094095230103,
                0,
                0.6851420998573303
            ],
            "translation" : [
                2.638876438140869,
                88.27865600585938,
                -13.081914901733398
            ]
        }
    ],
    "animations" : [
        {
            "channels" : [
                {
                    "sampler" : 0,
                    "target" : {
                        "node" : 0,
                        "path" : "translation"
                    }
                },
                {
                    "sampler" : 1,
                    "target" : {
                        "node" : 0,
                        "path" : "rotation"
                    }
                },
                {
                    "sampler" : 2,
                    "target" : {
                        "node" : 0,
                        "path" : "scale"
                    }
                }
            ],
            "name" : "dar_rast_close",
            "samplers" : [
                {
                    "input" : 12,
                    "interpolation" : "LINEAR",
                    "output" : 13
                },
                {
                    "input" : 12,
                    "interpolation" : "LINEAR",
                    "output" : 14
                },
                {
                    "input" : 12,
                    "interpolation" : "LINEAR",
                    "output" : 15
                }
            ]
        },
        {
            "channels" : [
                {
                    "sampler" : 0,
                    "target" : {
                        "node" : 0,
                        "path" : "translation"
                    }
                },
                {
                    "sampler" : 1,
                    "target" : {
                        "node" : 0,
                        "path" : "rotation"
                    }
                },
                {
                    "sampler" : 2,
                    "target" : {
                        "node" : 0,
                        "path" : "scale"
                    }
                }
            ],
            "name" : "dar_rast_open",
            "samplers" : [
                {
                    "input" : 12,
                    "interpolation" : "LINEAR",
                    "output" : 16
                },
                {
                    "input" : 12,
                    "interpolation" : "LINEAR",
                    "output" : 17
                },
                {
                    "input" : 12,
                    "interpolation" : "LINEAR",
                    "output" : 18
                }
            ]
        }
    ],
    "materials" : [
        {
            "doubleSided" : true,
            "name" : "gate_steel_01",
            "pbrMetallicRoughness" : {
                "baseColorFactor" : [
                    0.09800150990486145,
                    0.11518490314483643,
                    0.15232333540916443,
                    1
                ],
                "metallicFactor" : 0.47122713923454285,
                "roughnessFactor" : 0.6000000238418579
            }
        },
        {
            "doubleSided" : true,
            "name" : "gate_steel_02",
            "pbrMetallicRoughness" : {
                "baseColorFactor" : [
                    0.05759919062256813,
                    0.06729570776224136,
                    0.09462440758943558,
                    1
                ],
                "metallicFactor" : 0.48342224955558777,
                "roughnessFactor" : 0.6000000238418579
            }
        },
        {
            "doubleSided" : true,
            "name" : "gate_wood_01",
            "pbrMetallicRoughness" : {
                "baseColorFactor" : [
                    0.037403956055641174,
                    0.02901252917945385,
                    0.026694685220718384,
                    1
                ],
                "metallicFactor" : 0.26391005516052246,
                "roughnessFactor" : 0.6000000238418579
            }
        },
        {
            "doubleSided" : true,
            "name" : "gate_wood_02",
            "pbrMetallicRoughness" : {
                "baseColorFactor" : [
                    0.03739822655916214,
                    0.03508668392896652,
                    0.028661739081144333,
                    1
                ],
                "metallicFactor" : 0.25171494483947754,
                "roughnessFactor" : 0.6000000238418579
            }
        }
    ],
    "meshes" : [
        {
            "name" : "Cube.002_0.003",
            "primitives" : [
                {
                    "attributes" : {
                        "POSITION" : 0,
                        "NORMAL" : 1
                    },
                    "indices" : 2,
                    "material" : 0
                },
                {
                    "attributes" : {
                        "POSITION" : 3,
                        "NORMAL" : 4
                    },
                    "indices" : 5,
                    "material" : 1
                },
                {
                    "attributes" : {
                        "POSITION" : 6,
                        "NORMAL" : 7
                    },
                    "indices" : 8,
                    "material" : 2
                },
                {
                    "attributes" : {
                        "POSITION" : 9,
                        "NORMAL" : 10
                    },
                    "indices" : 11,
                    "material" : 3
                }
            ]
        }
    ],
    "accessors" : [
        {
            "bufferView" : 0,
            "componentType" : 5126,
            "count" : 2076,
            "max" : [
                4.7862443923950195,
                0.0243377685546875,
                12.796446800231934
            ],
            "min" : [
                -1.5237975120544434,
                -31.052833557128906,
                -0.09072208404541016
            ],
            "type" : "VEC3"
        },
        {
            "bufferView" : 1,
            "componentType" : 5126,
            "count" : 2076,
            "type" : "VEC3"
        },
        {
            "bufferView" : 2,
            "componentType" : 5123,
            "count" : 2076,
            "type" : "SCALAR"
        },
        {
            "bufferView" : 3,
            "componentType" : 5126,
            "count" : 2004,
            "max" : [
                4.187220096588135,
                -1.6646652221679688,
                12.065018653869629
            ],
            "min" : [
                -1.4871158599853516,
                -29.368328094482422,
                0.6694440841674805
            ],
            "type" : "VEC3"
        },
        {
            "bufferView" : 4,
            "componentType" : 5126,
            "count" : 2004,
            "type" : "VEC3"
        },
        {
            "bufferView" : 5,
            "componentType" : 5123,
            "count" : 2004,
            "type" : "SCALAR"
        },
        {
            "bufferView" : 6,
            "componentType" : 5126,
            "count" : 372,
            "max" : [
                1.8878278732299805,
                -1.6646652221679688,
                12.03837776184082
            ],
            "min" : [
                -1.360825538635254,
                -29.367271423339844,
                0.6993885040283203
            ],
            "type" : "VEC3"
        },
        {
            "bufferView" : 7,
            "componentType" : 5126,
            "count" : 372,
            "type" : "VEC3"
        },
        {
            "bufferView" : 8,
            "componentType" : 5123,
            "count" : 372,
            "type" : "SCALAR"
        },
        {
            "bufferView" : 9,
            "componentType" : 5126,
            "count" : 288,
            "max" : [
                1.8285455703735352,
                -3.8551177978515625,
                12.03123664855957
            ],
            "min" : [
                -1.360825538635254,
                -29.294178009033203,
                0.6949615478515625
            ],
            "type" : "VEC3"
        },
        {
            "bufferView" : 10,
            "componentType" : 5126,
            "count" : 288,
            "type" : "VEC3"
        },
        {
            "bufferView" : 11,
            "componentType" : 5123,
            "count" : 288,
            "type" : "SCALAR"
        },
        {
            "bufferView" : 12,
            "componentType" : 5126,
            "count" : 40,
            "max" : [
                1.6666666666666667
            ],
            "min" : [
                0.041666666666666664
            ],
            "type" : "SCALAR"
        },
        {
            "bufferView" : 13,
            "componentType" : 5126,
            "count" : 40,
            "type" : "VEC3"
        },
        {
            "bufferView" : 14,
            "componentType" : 5126,
            "count" : 40,
            "type" : "VEC4"
        },
        {
            "bufferView" : 15,
            "componentType" : 5126,
            "count" : 40,
            "type" : "VEC3"
        },
        {
            "bufferView" : 16,
            "componentType" : 5126,
            "count" : 40,
            "type" : "VEC3"
        },
        {
            "bufferView" : 17,
            "componentType" : 5126,
            "count" : 40,
            "type" : "VEC4"
        },
        {
            "bufferView" : 18,
            "componentType" : 5126,
            "count" : 40,
            "type" : "VEC3"
        }
    ],
    "bufferViews" : [
        {
            "buffer" : 0,
            "byteLength" : 24912,
            "byteOffset" : 0
        },
        {
            "buffer" : 0,
            "byteLength" : 24912,
            "byteOffset" : 24912
        },
        {
            "buffer" : 0,
            "byteLength" : 4152,
            "byteOffset" : 49824
        },
        {
            "buffer" : 0,
            "byteLength" : 24048,
            "byteOffset" : 53976
        },
        {
            "buffer" : 0,
            "byteLength" : 24048,
            "byteOffset" : 78024
        },
        {
            "buffer" : 0,
            "byteLength" : 4008,
            "byteOffset" : 102072
        },
        {
            "buffer" : 0,
            "byteLength" : 4464,
            "byteOffset" : 106080
        },
        {
            "buffer" : 0,
            "byteLength" : 4464,
            "byteOffset" : 110544
        },
        {
            "buffer" : 0,
            "byteLength" : 744,
            "byteOffset" : 115008
        },
        {
            "buffer" : 0,
            "byteLength" : 3456,
            "byteOffset" : 115752
        },
        {
            "buffer" : 0,
            "byteLength" : 3456,
            "byteOffset" : 119208
        },
        {
            "buffer" : 0,
            "byteLength" : 576,
            "byteOffset" : 122664
        },
        {
            "buffer" : 0,
            "byteLength" : 160,
            "byteOffset" : 123240
        },
        {
            "buffer" : 0,
            "byteLength" : 480,
            "byteOffset" : 123400
        },
        {
            "buffer" : 0,
            "byteLength" : 640,
            "byteOffset" : 123880
        },
        {
            "buffer" : 0,
            "byteLength" : 480,
            "byteOffset" : 124520
        },
        {
            "buffer" : 0,
            "byteLength" : 480,
            "byteOffset" : 125000
        },
        {
            "buffer" : 0,
            "byteLength" : 640,
            "byteOffset" : 125480
        },
        {
            "buffer" : 0,
            "byteLength" : 480,
            "byteOffset" : 126120
        }
    ],
    "buffers" : [
        {
            "byteLength" : 126600,
            "uri" : "data:application/octet-stream;base64,"
        }
    ]
}
